<svg width="9" height="5" viewBox="0 0 9 5" fill="none" xmlns="http://www.w3.org/2000/svg">
<path d="M2.11656 0.6C1.78347 0.6 1.51976 0.7 1.32546 0.9C1.13577 1.09556 1.04093 1.39556 1.04093 1.8C1.04093 2.20444 1.13577 2.50667 1.32546 2.70667C1.51976 2.90222 1.78347 3 2.11656 3H2.98401V0.6H2.11656ZM3.95554 3.53333C3.95554 3.74222 3.91391 3.93111 3.83063 4.1C3.74736 4.27333 3.62245 4.42222 3.4559 4.54667C3.29397 4.67111 3.0881 4.76667 2.83828 4.83333C2.59308 4.9 2.30624 4.93333 1.97777 4.93333C1.86674 4.93333 1.74646 4.92444 1.61692 4.90667C1.49201 4.89333 1.36478 4.86889 1.23524 4.83333C1.1057 4.80222 0.978478 4.76 0.853566 4.70667C0.733281 4.65778 0.622248 4.6 0.520468 4.53333L0.763351 4.13333C0.920648 4.23555 1.09876 4.31556 1.2977 4.37333C1.49663 4.43556 1.70019 4.46667 1.90838 4.46667C2.25536 4.46667 2.52137 4.39111 2.70643 4.24C2.89148 4.08889 2.98401 3.85333 2.98401 3.53333V3.46667H2.11656C1.79735 3.46667 1.50588 3.42667 1.24218 3.34667C0.983104 3.26667 0.761038 3.15333 0.575983 3.00667C0.390928 2.86 0.247511 2.68444 0.145731 2.48C0.0485773 2.27556 0 2.04889 0 1.8C0 1.55111 0.0485773 1.32444 0.145731 1.12C0.247511 0.915556 0.390928 0.74 0.575983 0.593333C0.761038 0.446667 0.983104 0.333333 1.24218 0.253333C1.50588 0.173333 1.79735 0.133333 2.11656 0.133333H3.95554V3.53333Z" fill="black"/>
<path d="M6.65899 3.3C6.80703 3.3 6.94582 3.27333 7.07536 3.22C7.2049 3.16667 7.31824 3.08444 7.4154 2.97333C7.51255 2.85778 7.58889 2.70889 7.6444 2.52667C7.70455 2.34444 7.73462 2.12444 7.73462 1.86667C7.73462 1.60889 7.70455 1.38889 7.6444 1.20667C7.58889 1.02444 7.51255 0.877778 7.4154 0.766667C7.31824 0.651111 7.2049 0.566667 7.07536 0.513333C6.94582 0.46 6.80703 0.433333 6.65899 0.433333C6.51094 0.433333 6.37215 0.46 6.24261 0.513333C6.11308 0.566667 5.99973 0.651111 5.90258 0.766667C5.80542 0.877778 5.72678 1.02444 5.66663 1.20667C5.61112 1.38889 5.58336 1.60889 5.58336 1.86667C5.58336 2.12444 5.61112 2.34444 5.66663 2.52667C5.72678 2.70889 5.80542 2.85778 5.90258 2.97333C5.99973 3.08444 6.11308 3.16667 6.24261 3.22C6.37215 3.27333 6.51094 3.3 6.65899 3.3ZM6.65899 0C6.96895 0 7.25347 0.042222 7.51255 0.126666C7.77625 0.206666 8.00063 0.326667 8.18569 0.486667C8.37074 0.642222 8.51416 0.837778 8.61594 1.07333C8.72235 1.30444 8.77555 1.56889 8.77555 1.86667C8.77555 2.16889 8.72235 2.43556 8.61594 2.66667C8.51416 2.89778 8.37074 3.09333 8.18569 3.25333C8.00063 3.40889 7.77625 3.52667 7.51255 3.60667C7.25347 3.69111 6.96895 3.73333 6.65899 3.73333C6.34439 3.73333 6.05756 3.69111 5.79848 3.60667C5.53941 3.52667 5.31734 3.40889 5.13229 3.25333C4.94723 3.09333 4.8015 2.89778 4.69509 2.66667C4.59331 2.43556 4.54242 2.16889 4.54242 1.86667C4.54242 1.56889 4.59331 1.30444 4.69509 1.07333C4.8015 0.837778 4.94723 0.642222 5.13229 0.486667C5.31734 0.326667 5.53941 0.206666 5.79848 0.126666C6.05756 0.042222 6.34439 0 6.65899 0Z" fill="black"/>
</svg>
